<svg xmlns="http://www.w3.org/2000/svg" width="24" height="24" fill="none" viewBox="0 0 24 24"><path fill="#ffcb6b" fill-rule="evenodd" d="M20 15c1.012 0 1.834.821 1.834 1.834V19.5A1.834 1.834 0 0 1 20 21.334h-5a1.834 1.834 0 0 1-1.834-1.834v-2.666c0-1.013.821-1.834 1.833-1.835zm-2.5 2.334a.5.5 0 0 0-.5.5v.666a.5.5 0 0 0 1 0v-.666a.5.5 0 0 0-.5-.5" clip-rule="evenodd"/><path fill="#ffcb6b" d="M15.833 13.333a1.667 1.667 0 1 1 3.333 0V15H20q.084 0 .166.007v-1.674a2.667 2.667 0 1 0-5.333 0v1.674Q14.915 15 15 15h.834z"/><path fill="url(#a)" d="m13.462 20.497-.048-.08zm-.087-.148-.036-.076zm-.074-.162-.03-.08zM12.778 4.66c.256-.644 1.314-.644 1.57 0l1.605 4.06a4.87 4.87 0 0 0-3.32 4.615v.238a4.03 4.03 0 0 0-1.594 2.497l-.278-.705-5.103-2.017a.843.843 0 0 1 0-1.569l5.103-2.017zm6.365 8.401q.009.054.015.109-.006-.055-.015-.109m-1.307-1.36h-.01z"/><path fill="#80cbc4" d="M6.278 8.2a.564.564 0 0 0 1.07 0l.473-1.42 1.421-.474a.563.563 0 0 0 0-1.067l-1.421-.474-.474-1.42c-.154-.46-.913-.46-1.067 0l-.474 1.42-1.421.474a.563.563 0 0 0 0 1.067l1.42.473z"/><defs><radialGradient id="a" cx="0" cy="0" r="1" gradientTransform="matrix(6.20088 17.6549 -14.8436 12.348 9.04 3.76)" gradientUnits="userSpaceOnUse"><stop stop-color="#89ddff"/><stop offset=".38" stop-color="#dcf7b5" stop-opacity=".76"/><stop offset=".7" stop-color="#f9b7a4"/><stop offset="1" stop-color="#fff" stop-opacity=".61"/></radialGradient></defs></svg>